<svg width="21" height="21" viewBox="0 0 21 21" fill="none" xmlns="http://www.w3.org/2000/svg">
<path d="M10.5 0C11.4639 0 12.3936 0.123047 13.2891 0.369141C14.1846 0.615234 15.022 0.967285 15.8013 1.42529C16.5806 1.8833 17.2881 2.43018 17.9238 3.06592C18.5596 3.70166 19.1064 4.4126 19.5645 5.19873C20.0225 5.98486 20.3745 6.82227 20.6206 7.71094C20.8667 8.59961 20.9932 9.5293 21 10.5C21 10.876 20.9658 11.2656 20.8975 11.6689C20.8291 12.0723 20.7197 12.4722 20.5693 12.8687C20.4189 13.2651 20.2378 13.6343 20.0259 13.9761C19.814 14.3179 19.561 14.6221 19.2671 14.8887C18.9731 15.1553 18.6416 15.3638 18.2725 15.5142C17.9033 15.6646 17.5 15.7432 17.0625 15.75C16.6934 15.75 16.3345 15.7021 15.9858 15.6064C15.6372 15.5107 15.3091 15.3672 15.0015 15.1758C14.6938 14.9844 14.4204 14.7588 14.1812 14.499C13.9419 14.2393 13.7334 13.9385 13.5557 13.5967C13.3506 13.918 13.1147 14.2085 12.8481 14.4683C12.5815 14.728 12.291 14.957 11.9766 15.1553C11.6621 15.3535 11.3271 15.5005 10.9717 15.5962C10.6162 15.6919 10.2402 15.7432 9.84375 15.75C9.14648 15.75 8.51416 15.5996 7.94678 15.2988C7.37939 14.998 6.89746 14.5981 6.50098 14.0991C6.10449 13.6001 5.79687 13.0396 5.57812 12.4175C5.35937 11.7954 5.25 11.1562 5.25 10.5C5.25 9.85059 5.35596 9.21143 5.56787 8.58252C5.77979 7.95361 6.0874 7.39307 6.49072 6.90088C6.89404 6.40869 7.37939 6.01221 7.94678 5.71143C8.51416 5.41064 9.14648 5.25684 9.84375 5.25C10.4932 5.25 11.0947 5.39014 11.6484 5.67041C12.2021 5.95068 12.6943 6.3335 13.125 6.81885V5.25H14.4375V11.8125C14.4375 12.1748 14.5059 12.5132 14.6426 12.8276C14.7793 13.1421 14.9673 13.4224 15.2065 13.6685C15.4458 13.9146 15.7227 14.1025 16.0371 14.2324C16.3516 14.3623 16.6934 14.4307 17.0625 14.4375C17.3633 14.4375 17.6367 14.376 17.8828 14.2529C18.1289 14.1299 18.3511 13.9624 18.5493 13.7505C18.7476 13.5386 18.9185 13.2993 19.062 13.0327C19.2056 12.7661 19.3218 12.4824 19.4106 12.1816C19.4995 11.8809 19.5679 11.5903 19.6157 11.3101C19.6636 11.0298 19.6875 10.7598 19.6875 10.5C19.6875 9.65918 19.5781 8.84912 19.3594 8.06982C19.1406 7.29053 18.833 6.55908 18.4365 5.87549C18.04 5.19189 17.5581 4.56982 16.9907 4.00928C16.4233 3.44873 15.8047 2.97021 15.1348 2.57373C14.4648 2.17725 13.7334 1.86621 12.9404 1.64062C12.1475 1.41504 11.334 1.30566 10.5 1.3125C9.65918 1.3125 8.84912 1.42187 8.06982 1.64062C7.29053 1.85937 6.55908 2.16699 5.87549 2.56348C5.19189 2.95996 4.56982 3.44189 4.00928 4.00928C3.44873 4.57666 2.97021 5.19531 2.57373 5.86523C2.17725 6.53516 1.86621 7.2666 1.64062 8.05957C1.41504 8.85254 1.30566 9.66602 1.3125 10.5C1.3125 11.3408 1.42187 12.1509 1.64062 12.9302C1.85937 13.7095 2.16699 14.4409 2.56348 15.1245C2.95996 15.8081 3.44189 16.4302 4.00928 16.9907C4.57666 17.5513 5.19531 18.0298 5.86523 18.4263C6.53516 18.8228 7.2666 19.1338 8.05957 19.3594C8.85254 19.585 9.66602 19.6943 10.5 19.6875C11.7168 19.6875 12.8892 19.4551 14.0171 18.9902L14.5195 20.2002C13.877 20.4668 13.2207 20.665 12.5508 20.7949C11.8809 20.9248 11.1973 20.9932 10.5 21C9.53613 21 8.60645 20.877 7.71094 20.6309C6.81543 20.3848 5.97803 20.0327 5.19873 19.5747C4.41943 19.1167 3.71191 18.5698 3.07617 17.9341C2.44043 17.2983 1.89355 16.5874 1.43555 15.8013C0.977539 15.0151 0.625488 14.1812 0.379395 13.2993C0.133301 12.4175 0.00683594 11.4844 0 10.5C0 9.53613 0.123047 8.60645 0.369141 7.71094C0.615234 6.81543 0.967285 5.97803 1.42529 5.19873C1.8833 4.41943 2.43018 3.71191 3.06592 3.07617C3.70166 2.44043 4.4126 1.89355 5.19873 1.43555C5.98486 0.977539 6.81885 0.625488 7.70068 0.379395C8.58252 0.133301 9.51562 0.00683594 10.5 0ZM9.84375 14.4375C10.3564 14.4375 10.8145 14.3213 11.2178 14.0889C11.6211 13.8564 11.9663 13.5488 12.2534 13.166C12.5405 12.7832 12.7559 12.3628 12.8994 11.9048C13.043 11.4468 13.1182 10.9785 13.125 10.5C13.125 10.0352 13.0498 9.57031 12.8994 9.10547C12.749 8.64062 12.5337 8.2168 12.2534 7.83398C11.9731 7.45117 11.6313 7.14697 11.228 6.92139C10.8247 6.6958 10.3633 6.57617 9.84375 6.5625C9.33105 6.5625 8.87305 6.67871 8.46973 6.91113C8.06641 7.14355 7.72119 7.45117 7.43408 7.83398C7.14697 8.2168 6.93164 8.63721 6.78809 9.09521C6.64453 9.55322 6.56934 10.0215 6.5625 10.5C6.5625 10.9648 6.6377 11.4297 6.78809 11.8945C6.93848 12.3594 7.15381 12.7832 7.43408 13.166C7.71436 13.5488 8.05615 13.853 8.45947 14.0786C8.86279 14.3042 9.32422 14.4238 9.84375 14.4375Z" fill="#727272"/>
</svg>
