<svg width="21" height="18" viewBox="0 0 21 18" fill="none" xmlns="http://www.w3.org/2000/svg">
<path d="M18.375 7.66667H11.8125V6.25H18.375V7.66667ZM18.375 11.9167H11.8125V10.5H18.375V11.9167ZM21 0.583333V17.5833H0V0.583333H21ZM19.6875 2H1.3125V16.1667H19.6875V2ZM6.5625 10.5C6.2002 10.5 5.86182 10.5738 5.54736 10.7214C5.23291 10.8689 4.95264 11.0718 4.70654 11.3301C4.46045 11.5883 4.27246 11.8872 4.14258 12.2266C4.0127 12.566 3.94434 12.9349 3.9375 13.3333H2.625C2.625 12.9497 2.67285 12.577 2.76855 12.2155C2.86426 11.8539 2.99756 11.5109 3.16846 11.1862C3.33936 10.8615 3.55127 10.5664 3.8042 10.3008C4.05713 10.0352 4.34082 9.80642 4.65527 9.61458C4.42969 9.35634 4.25537 9.05751 4.13232 8.7181C4.00928 8.37869 3.94434 8.02821 3.9375 7.66667C3.9375 7.27561 4.00586 6.91037 4.14258 6.57096C4.2793 6.23155 4.46729 5.92904 4.70654 5.66341C4.9458 5.39779 5.22266 5.19488 5.53711 5.05469C5.85156 4.9145 6.19336 4.84071 6.5625 4.83333C6.9248 4.83333 7.26318 4.90712 7.57764 5.05469C7.89209 5.20226 8.17236 5.40516 8.41846 5.66341C8.66455 5.92166 8.85254 6.22049 8.98242 6.5599C9.1123 6.89931 9.18066 7.26823 9.1875 7.66667C9.1875 8.02821 9.12598 8.37869 9.00293 8.7181C8.87988 9.05751 8.70215 9.35634 8.46973 9.61458C8.78418 9.80642 9.06445 10.0352 9.31055 10.3008C9.55664 10.5664 9.76855 10.8579 9.94629 11.1751C10.124 11.4924 10.2607 11.8355 10.3564 12.2044C10.4521 12.5734 10.5 12.9497 10.5 13.3333H9.1875C9.1875 12.9423 9.11914 12.577 8.98242 12.2376C8.8457 11.8982 8.65771 11.5957 8.41846 11.3301C8.1792 11.0645 7.90234 10.8615 7.58789 10.7214C7.27344 10.5812 6.93164 10.5074 6.5625 10.5ZM5.25 7.66667C5.25 7.86588 5.28418 8.05035 5.35254 8.22005C5.4209 8.38976 5.51318 8.53733 5.62939 8.66276C5.74561 8.78819 5.88574 8.89149 6.0498 8.97266C6.21387 9.05382 6.38477 9.09071 6.5625 9.08333C6.74707 9.08333 6.91797 9.04644 7.0752 8.97266C7.23242 8.89887 7.36914 8.79926 7.48535 8.67383C7.60156 8.54839 7.69727 8.39714 7.77246 8.22005C7.84766 8.04297 7.88184 7.85851 7.875 7.66667C7.875 7.46745 7.84082 7.28299 7.77246 7.11328C7.7041 6.94358 7.61182 6.79601 7.49561 6.67057C7.37939 6.54514 7.23926 6.44184 7.0752 6.36068C6.91113 6.27951 6.74023 6.24262 6.5625 6.25C6.37793 6.25 6.20703 6.28689 6.0498 6.36068C5.89258 6.43446 5.75586 6.53407 5.63965 6.6595C5.52344 6.78494 5.42773 6.9362 5.35254 7.11328C5.27734 7.29036 5.24316 7.47483 5.25 7.66667Z" fill="#7A7A7A"/>
</svg>
