<svg width="14" height="4" viewBox="0 0 14 4" fill="none" xmlns="http://www.w3.org/2000/svg">
<path d="M1.73913 9.52914e-05C2.69963 9.52494e-05 3.47826 0.780497 3.47826 1.74317C3.47826 2.70585 2.69963 3.48625 1.73913 3.48625C0.778635 3.48625 -3.41159e-08 2.70585 -7.61958e-08 1.74317C-1.18276e-07 0.780498 0.778635 9.53334e-05 1.73913 9.52914e-05Z" fill="#8E9AAB"/>
<path d="M7 0.000166349C7.96049 0.000166307 8.73913 0.780569 8.73913 1.74324C8.73913 2.70592 7.96049 3.48632 7 3.48632C6.03951 3.48632 5.26087 2.70592 5.26087 1.74324C5.26087 0.780569 6.0395 0.000166391 7 0.000166349Z" fill="#8E9AAB"/>
<path d="M12.2391 0.000173987C13.1996 0.000173945 13.9783 0.780576 13.9783 1.74325C13.9783 2.70593 13.1996 3.48633 12.2391 3.48633C11.2786 3.48633 10.5 2.70593 10.5 1.74325C10.5 0.780576 11.2786 0.000174029 12.2391 0.000173987Z" fill="#8E9AAB"/>
</svg>
