<svg width="18" height="20" viewBox="0 0 18 20" fill="none" xmlns="http://www.w3.org/2000/svg">
<path d="M3.85714 10H2.57143V7.5H3.85714V10ZM6.42857 10H5.14286V7.5H6.42857V10ZM9 10H7.71429V7.5H9V10ZM3.85714 13.75H2.57143V11.25H3.85714V13.75ZM6.42857 13.75H5.14286V11.25H6.42857V13.75ZM9 13.75H7.71429V11.25H9V13.75ZM12.8571 7.5C13.567 7.5 14.2333 7.63021 14.856 7.89062C15.4788 8.15104 16.0246 8.50586 16.4933 8.95508C16.9621 9.4043 17.3304 9.9349 17.5982 10.5469C17.8661 11.1589 18 11.8099 18 12.5V20H16.7143V12.5C16.7143 11.9857 16.6138 11.5007 16.4129 11.0449C16.2121 10.5892 15.9375 10.1921 15.5893 9.85352C15.2411 9.51497 14.8292 9.24479 14.3538 9.04297C13.8783 8.84115 13.3795 8.74349 12.8571 8.75H11.5714V20H6.42857V16.25H5.14286V20H0V5H1.28571V2.5H3.85714V0H7.71429V2.5H10.2857V5H11.5714V7.5H12.8571ZM5.14286 2.5H6.42857V1.25H5.14286V2.5ZM2.57143 5H9V3.75H2.57143V5ZM10.2857 6.25H1.28571V18.75H3.85714V15H7.71429V18.75H10.2857V6.25ZM12.8571 11.25H15.4286V12.5H12.8571V11.25ZM12.8571 13.75H15.4286V15H12.8571V13.75ZM12.8571 16.25H15.4286V17.5H12.8571V16.25ZM12.8571 18.75H15.4286V20H12.8571V18.75Z" fill="#7A7A7A"/>
</svg>
