<svg width="22" height="22" viewBox="0 0 22 22" fill="none" xmlns="http://www.w3.org/2000/svg">
<path d="M21 16.5933V21H16.25V18.625H13.875V16.25H11.5V14.3296C11.0423 14.5708 10.563 14.7533 10.062 14.877C9.56104 15.0007 9.05078 15.0625 8.53125 15.0625C7.93131 15.0625 7.35303 14.9852 6.79639 14.8306C6.23975 14.6759 5.72021 14.4564 5.23779 14.1719C4.75537 13.8874 4.31624 13.5472 3.92041 13.1514C3.52458 12.7555 3.18132 12.3133 2.89062 11.8247C2.59993 11.3361 2.38037 10.8166 2.23193 10.2661C2.0835 9.71566 2.00618 9.13737 2 8.53125C2 7.93131 2.07731 7.35303 2.23193 6.79639C2.38656 6.23975 2.60612 5.72021 2.89062 5.23779C3.17513 4.75537 3.5153 4.31624 3.91113 3.92041C4.30697 3.52458 4.74919 3.18132 5.23779 2.89062C5.7264 2.59993 6.24593 2.38037 6.79639 2.23193C7.34684 2.0835 7.92513 2.00618 8.53125 2C9.13119 2 9.70947 2.07731 10.2661 2.23193C10.8228 2.38656 11.3423 2.60612 11.8247 2.89062C12.3071 3.17513 12.7463 3.5153 13.1421 3.91113C13.5379 4.30697 13.8812 4.74919 14.1719 5.23779C14.4626 5.7264 14.6821 6.24593 14.8306 6.79639C14.979 7.34684 15.0563 7.92513 15.0625 8.53125C15.0625 8.84668 15.0378 9.15902 14.9883 9.46826C14.9388 9.77751 14.8677 10.0806 14.7749 10.3774L21 16.5933ZM19.8125 17.0942L13.4111 10.6929C13.5472 10.3403 13.6585 9.98779 13.7451 9.63525C13.8317 9.28271 13.875 8.91471 13.875 8.53125C13.875 7.79525 13.7358 7.10254 13.4575 6.45312C13.1792 5.80371 12.7957 5.23779 12.3071 4.75537C11.8185 4.27295 11.2526 3.89258 10.6094 3.61426C9.96615 3.33594 9.27344 3.19368 8.53125 3.1875C7.79525 3.1875 7.10254 3.32666 6.45312 3.60498C5.80371 3.8833 5.23779 4.26676 4.75537 4.75537C4.27295 5.24398 3.89258 5.8099 3.61426 6.45312C3.33594 7.09635 3.19368 7.78906 3.1875 8.53125C3.1875 9.26725 3.32666 9.95996 3.60498 10.6094C3.8833 11.2588 4.26676 11.8247 4.75537 12.3071C5.24398 12.7896 5.8099 13.1699 6.45312 13.4482C7.09635 13.7266 7.78906 13.8688 8.53125 13.875C9.13119 13.875 9.71875 13.7729 10.2939 13.5688C10.8691 13.3647 11.3918 13.071 11.8618 12.6875H12.6875V15.0625H15.0625V17.4375H17.4375V19.8125H19.8125V17.0942ZM6.75 5.5625C6.91699 5.5625 7.07161 5.59342 7.21387 5.65527C7.35612 5.71712 7.47982 5.80062 7.58496 5.90576C7.6901 6.0109 7.77669 6.1377 7.84473 6.28613C7.91276 6.43457 7.94369 6.58919 7.9375 6.75C7.9375 6.91699 7.90658 7.07161 7.84473 7.21387C7.78288 7.35612 7.69938 7.47982 7.59424 7.58496C7.4891 7.6901 7.3623 7.77669 7.21387 7.84473C7.06543 7.91276 6.91081 7.94369 6.75 7.9375C6.58301 7.9375 6.42839 7.90658 6.28613 7.84473C6.14388 7.78288 6.02018 7.69938 5.91504 7.59424C5.8099 7.4891 5.72331 7.3623 5.65527 7.21387C5.58724 7.06543 5.55632 6.91081 5.5625 6.75C5.5625 6.58301 5.59342 6.42839 5.65527 6.28613C5.71712 6.14388 5.80062 6.02018 5.90576 5.91504C6.0109 5.8099 6.1377 5.72331 6.28613 5.65527C6.43457 5.58724 6.58919 5.55632 6.75 5.5625Z" fill="#6D6D6D"/>
</svg>
