<svg width="22" height="22" viewBox="0 0 22 22" fill="none" xmlns="http://www.w3.org/2000/svg">
<path d="M14.1169 12.281C14.9648 12.5732 15.7363 12.9928 16.4314 13.5397C17.1266 14.0866 17.7262 14.7197 18.2304 15.4389C18.7346 16.1581 19.1203 16.9373 19.3877 17.7764C19.6551 18.6155 19.7926 19.4733 19.8002 20.3499H18.3335C18.3335 19.6906 18.2457 19.0538 18.07 18.4394C17.8943 17.8251 17.6498 17.252 17.3367 16.72C17.0235 16.1881 16.6415 15.7049 16.1908 15.2703C15.7401 14.8358 15.2436 14.4612 14.7012 14.1465C14.1589 13.8319 13.5745 13.5884 12.9481 13.4161C12.3217 13.2438 11.6724 13.1576 11.0002 13.1576C10.328 13.1576 9.67867 13.2438 9.05228 13.4161C8.42589 13.5884 7.84151 13.8281 7.29915 14.1353C6.75679 14.4425 6.26408 14.8171 5.82103 15.2591C5.37797 15.7011 4.99603 16.1881 4.6752 16.72C4.35436 17.252 4.1061 17.8251 3.9304 18.4394C3.75471 19.0538 3.66686 19.6906 3.66686 20.3499H2.2002C2.2002 19.4733 2.33388 18.6155 2.60124 17.7764C2.8686 16.9373 3.25436 16.1619 3.75853 15.4501C4.2627 14.7384 4.86235 14.1053 5.55749 13.5509C6.25263 12.9965 7.02797 12.5732 7.88353 12.281C7.45575 12.0113 7.07381 11.7004 6.7377 11.3483C6.40158 10.9962 6.11131 10.6103 5.86686 10.1908C5.62242 9.77122 5.4429 9.32919 5.32832 8.86469C5.21374 8.40018 5.14881 7.9132 5.13353 7.40375C5.13353 6.6096 5.28631 5.86415 5.59186 5.16739C5.89742 4.47064 6.31374 3.86004 6.84082 3.3356C7.3679 2.81116 7.99047 2.3991 8.70853 2.09942C9.42658 1.79974 10.1905 1.6499 11.0002 1.6499C11.8099 1.6499 12.57 1.79974 13.2804 2.09942C13.9908 2.3991 14.6134 2.80741 15.1481 3.32436C15.6828 3.84131 16.103 4.45191 16.4085 5.15615C16.7141 5.8604 16.8669 6.6096 16.8669 7.40375C16.8669 7.90571 16.8057 8.38894 16.6835 8.85345C16.5613 9.31795 16.378 9.76372 16.1335 10.1908C15.8891 10.6178 15.6026 11.0036 15.2742 11.3483C14.9457 11.6929 14.5599 12.0038 14.1169 12.281ZM6.60019 7.40375C6.60019 8.00311 6.71478 8.56126 6.94394 9.07821C7.17311 9.59515 7.48631 10.0522 7.88353 10.4492C8.28075 10.8463 8.74672 11.1572 9.28145 11.382C9.81617 11.6068 10.3891 11.7191 11.0002 11.7191C11.6037 11.7191 12.1728 11.6068 12.7075 11.382C13.2422 11.1572 13.7082 10.8501 14.1054 10.4605C14.5026 10.0709 14.8196 9.61388 15.0564 9.08945C15.2933 8.56501 15.4078 8.00311 15.4002 7.40375C15.4002 6.81188 15.2856 6.25373 15.0564 5.72929C14.8273 5.20485 14.5141 4.74784 14.1169 4.35826C13.7196 3.96867 13.2498 3.65775 12.7075 3.4255C12.1651 3.19325 11.596 3.08087 11.0002 3.08836C10.3891 3.08836 9.81999 3.20074 9.2929 3.4255C8.76582 3.65026 8.29985 3.95743 7.89499 4.34702C7.49013 4.7366 7.17311 5.19736 6.94394 5.72929C6.71478 6.26122 6.60019 6.81937 6.60019 7.40375Z" fill="#7A7A7A"/>
</svg>
